# xmcd
#
# Track frame offsets: 
#        182
#        16252
#        25417
#        34735
#        48360
#        60985
#        71657
#        82427
#        93922
#        106705
#        117967
#        129647
#        141587
#        156030
#
# Disc length: 2226 seconds
#
# Revision: 1
# Processed by: cddbd v1.5.2PL0 Copyright (c) Steve Scherf et al.
# Submitted via: ExactAudioCopy v0.99pb4
#
DISCID=bc08b00e
DTITLE=Patti LaBelle and The Blue Belles - The Best Of The Early Years
DYEAR=1999
DGENRE=
TTITLE0=Down The Aisle (The Wedding Song)
TTITLE1=I Sold My Heart To The Junkman (Alternate Non-Overdubbed Versi
TTITLE1=on)
TTITLE2=Academy Award
TTITLE3=Have I Sinned
TTITLE4=Danny Boy
TTITLE5=Tear After Tear
TTITLE6=Decatur Street
TTITLE7=Island Of Unbroken Hearts
TTITLE8=One Phone Call (Will Do)
TTITLE9=I Believe
TTITLE10=Cool Water
TTITLE11=The Joke's On You
TTITLE12=You'll Never Walk Alone
TTITLE13=I Sold My Heart To The Junkman (National Hit Version)
EXTD=
EXTT0=
EXTT1=
EXTT2=
EXTT3=
EXTT4=
EXTT5=
EXTT6=
EXTT7=
EXTT8=
EXTT9=
EXTT10=
EXTT11=
EXTT12=
EXTT13=
PLAYORDER=
